HIERARCHY
ROOT root
{
	OFFSET	0	13.1	24.9
	CHANNELS 6  Xposition Yposition Zposition Xrotation Yrotation Zrotation
	JOINT spine_1
	{
		OFFSET	0	9.99999	0
		CHANNELS 3  Xrotation Yrotation Zrotation
		JOINT spine_2
		{
			OFFSET	0	112	-10
			CHANNELS 3  Xrotation Yrotation Zrotation
			JOINT spine_3
			{
				OFFSET	0	206.5	19.3
				CHANNELS 3  Xrotation Yrotation Zrotation
				JOINT spine_4
				{
					OFFSET	0	110.4	14.6
					CHANNELS 3  Xrotation Yrotation Zrotation
					JOINT neck_1
					{
						OFFSET	0	71.8	-50.3
						CHANNELS 3  Xrotation Yrotation Zrotation
						JOINT neck_2
						{
							OFFSET	0	86.2	-25.8
							CHANNELS 3  Xrotation Yrotation Zrotation
							JOINT head_ee
							{
								OFFSET	0	179.8	-8.7
								CHANNELS 3  Xrotation Yrotation Zrotation
								End Site
								{
									OFFSET	1	0	0
								}
							}
						}
					}
					JOINT left_clavicle
					{
						OFFSET	-43.2	22.4	-70.8
						CHANNELS 3  Xrotation Yrotation Zrotation
						JOINT left_shoulder
						{
							OFFSET	-93.9	-5.79999	48.7
							CHANNELS 3  Xrotation Yrotation Zrotation
							JOINT left_elbow
							{
								OFFSET	-291.4	-30.8	15.2
								CHANNELS 3  Xrotation Yrotation Zrotation
								JOINT left_lowarm_twist
								{
									OFFSET	-110.7	-3.89999	13.6
									CHANNELS 3  Xrotation Yrotation Zrotation
									JOINT left_hand
									{
										OFFSET	-110.7	-3.89999	13.6
										CHANNELS 3  Xrotation Yrotation Zrotation
										JOINT left_ee
										{
											OFFSET	-80.8	-5.10001	12.1
											CHANNELS 3  Xrotation Yrotation Zrotation
											End Site
											{
												OFFSET	1	0	0
											}
										}
									}
								}
							}
						}
					}
					JOINT right_clavicle
					{
						OFFSET	43.2	22.4	-70.8
						CHANNELS 3  Xrotation Yrotation Zrotation
						JOINT right_shoulder
						{
							OFFSET	93.9	-5.79999	48.7
							CHANNELS 3  Xrotation Yrotation Zrotation
							JOINT right_elbow
							{
								OFFSET	291.4	-30.8	15.2
								CHANNELS 3  Xrotation Yrotation Zrotation
								JOINT right_lowarm_twist
								{
									OFFSET	110.7	-3.89999	13.6
									CHANNELS 3  Xrotation Yrotation Zrotation
									JOINT right_hand
									{
										OFFSET	110.7	-3.89999	13.6
										CHANNELS 3  Xrotation Yrotation Zrotation
										JOINT right_ee
										{
											OFFSET	80.8	-5.10001	12.1
											CHANNELS 3  Xrotation Yrotation Zrotation
											End Site
											{
												OFFSET	1	0	0
											}
										}
									}
								}
							}
						}
					}
				}
			}
		}
	}
	JOINT left_hip
	{
		OFFSET	-82.8	-127.5	0.300001
		CHANNELS 3  Xrotation Yrotation Zrotation
		JOINT left_knee
		{
			OFFSET	-28.2	-396.7	2.2
			CHANNELS 3  Xrotation Yrotation Zrotation
			JOINT left_ankle
			{
				OFFSET	-11.7	-411.3	35.4
				CHANNELS 3  Xrotation Yrotation Zrotation
				JOINT left_toes
				{
					OFFSET	0	-60	-88.6
					CHANNELS 3  Xrotation Yrotation Zrotation
					JOINT left_foot_ee
					{
						OFFSET	-22.5	-16.5	-42.2
						CHANNELS 3  Xrotation Yrotation Zrotation
						End Site
						{
							OFFSET	1	0	0
						}
					}
				}
			}
		}
	}
	JOINT right_hip
	{
		OFFSET	82.8	-127.5	0.300001
		CHANNELS 3  Xrotation Yrotation Zrotation
		JOINT right_knee
		{
			OFFSET	28.2	-396.7	2.2
			CHANNELS 3  Xrotation Yrotation Zrotation
			JOINT right_ankle
			{
				OFFSET	11.7	-411.3	35.4
				CHANNELS 3  Xrotation Yrotation Zrotation
				JOINT right_toes
				{
					OFFSET	0	-60	-88.6
					CHANNELS 3  Xrotation Yrotation Zrotation
					JOINT right_foot_ee
					{
						OFFSET	22.5	-16.5	-42.2
						CHANNELS 3  Xrotation Yrotation Zrotation
						End Site
						{
							OFFSET	1	0	0
						}
					}
				}
			}
		}
	}
}
MOTION
Frames: 6
Frame Time: 0.02
510.865781162 685.265 -1295.33969578 -98.8127795668 -84.1246263522 -98.1546719951 3.99034 0.124536 -0.0455025 3.99033 0.127179 -0.0374857 3.99025 0.131206 -0.0190948 3.99027 0.126544 -0.0395768 -15.82 2.55291 -1.91781 -15.8444 6.00371 -0.923945 -0.0 0.0 -0.0 5.29921 19.1089 10.2034 -13.1738 -21.7173 65.8042 1.22609 -31.272 0.343175 17.8281 0.279977 -2.251 0.219074 26.7152 11.7794 -0.0 0.0 -0.0 6.72325 -17.933 -12.4787 -22.7964 27.5741 -60.1803 0.8006 21.6329 -0.152963 11.578 -0.261873 1.45329 6.15623 -32.6102 -52.9278 0.0 0.0 0.0 3.77702 19.9822 -1.86163 -24.3654 0.218336 3.7046 40.8597 -5.94044 -5.01947 4.55425 -0.0 -0.0 -0.0 0.0 -0.0 13.295 -2.80844 6.32092 -27.3418 -0.136669 -4.15403 41.4591 -2.44907 4.98581 -23.2359 0.0 0.0 0.0 0.0 0.0 
513.554177006 685.265 -1291.69792324 -114.309348646 -83.6271503253 -113.738950774 3.99034 0.124536 -0.0455025 3.99033 0.127179 -0.0374857 3.99025 0.131206 -0.0190948 3.99027 0.126544 -0.0395768 -15.82 2.55291 -1.91781 -15.8444 6.00371 -0.923945 -0.0 0.0 -0.0 5.29921 19.1089 10.2034 -13.1738 -21.7173 65.8042 1.22609 -31.272 0.343175 17.8281 0.279977 -2.251 0.219074 26.7152 11.7794 -0.0 0.0 -0.0 6.72325 -17.933 -12.4787 -22.7964 27.5741 -60.1803 0.8006 21.6329 -0.152963 11.578 -0.261873 1.45329 6.15623 -32.6102 -52.9278 0.0 0.0 0.0 3.77702 19.9822 -1.86163 -24.3654 0.218336 3.7046 40.8597 -5.94044 -5.01947 4.55425 -0.0 -0.0 -0.0 0.0 -0.0 13.295 -2.80844 6.32092 -27.3418 -0.136669 -4.15403 41.4591 -2.44907 4.98581 -23.2359 0.0 0.0 0.0 0.0 0.0 
556.809492333 680.911 -1273.79488347 -178.58984267 -75.4653385065 -178.612828173 3.02653 0.237984 -0.00954243 3.0265 0.238109 0.00562052 3.02653 0.234218 0.0432336 3.02661 0.238107 0.00570038 -21.5061 5.99918 -1.842 -21.7522 12.4593 0.985308 -0.0 0.0 -0.0 5.75628 16.42 11.0125 -10.2623 -26.0607 63.4278 1.48106 -36.2643 0.485031 17.3669 0.281616 -2.19211 0.541445 23.0524 12.3994 -0.0 0.0 -0.0 6.75414 -19.2344 -12.4361 -25.4474 24.4409 -58.9297 0.946441 25.1186 -0.210853 9.94339 -0.242796 1.24538 6.14217 -32.7677 -52.7599 0.0 0.0 0.0 -6.10207 19.0721 -0.786943 -25.4422 0.191487 3.86768 39.7715 -6.22301 -4.93138 12.2933 -0.0 -0.0 -0.0 0.0 -0.0 21.112 8.80785 1.61252 -59.0478 2.09805 -8.41971 37.2798 -28.5152 5.01747 4.53704 -0.0 -0.0 0.0 0.0 0.0 
556.094370354 686.517 -1273.87924531 -177.717792986 -77.11263878 -177.871839452 2.96403 0.226127 0.15546 2.96402 0.215777 0.169534 2.96467 0.18601 0.201747 2.96468 0.215537 0.169838 -22.2906 7.43247 -2.0879 -22.6906 15.313 1.53141 -0.0 0.0 -0.0 5.75401 16.1709 11.0177 -9.90458 -28.7635 61.8671 1.64196 -39.1211 0.583438 16.7234 0.28311 -2.10994 0.805601 20.017 12.9593 -0.0 0.0 -0.0 7.00507 -20.4716 -12.7238 -23.9674 21.9394 -59.928 0.845323 22.7212 -0.169845 8.14563 -0.214976 1.01744 5.65473 -30.8646 -48.4459 0.0 0.0 0.0 -7.78649 18.0394 0.1619 -17.571 0.316644 2.66729 39.2402 -8.53553 -4.92838 11.0976 -0.0 -0.0 -0.0 0.0 -0.0 22.3759 9.61517 -0.416131 -54.7928 1.66471 -7.92732 38.5875 -25.4296 5.04382 4.26798 -0.0 -0.0 0.0 0.0 0.0 
558.205858724 688.626 -1280.43146278 -177.155835984 -77.3086029484 -177.393391111 2.92202 0.310619 0.262968 2.92201 0.293257 0.282201 2.92347 0.244318 0.325493 2.92344 0.292657 0.282823 -23.6039 7.82419 -3.22606 -24.1023 16.5213 0.857072 -0.0 0.0 -0.0 5.82777 15.7548 11.1518 -9.57822 -29.6766 60.5539 1.82804 -42.1586 0.704675 16.3936 0.283519 -2.06782 0.866381 18.4478 12.7969 -0.0 0.0 -0.0 7.29446 -20.5956 -13.1529 -25.2051 20.8436 -59.2071 0.848138 22.7892 -0.170934 7.32237 -0.19985 0.913363 5.5709 -29.5209 -47.7784 0.0 0.0 0.0 -8.78854 17.6631 1.17429 -15.1038 0.321816 2.28881 38.6887 -8.36285 -4.87592 10.4002 -0.0 -0.0 -0.0 0.0 -0.0 23.3288 11.3549 -2.03775 -50.8999 1.30144 -7.45017 38.0017 -22.4866 4.89983 4.7176 -0.0 -0.0 0.0 0.0 0.0 
569.001468601 685.206 -1287.37667473 -176.668094587 -79.5558792226 -177.032130276 2.66619 0.432561 0.219824 2.66612 0.417697 0.246904 2.66795 0.371415 0.312223 2.66806 0.416064 0.249646 -21.0577 9.12921 -3.06984 -21.6291 19.0995 1.25479 -0.0 0.0 -0.0 6.12669 15.5552 11.6473 -9.10837 -30.5642 59.567 1.99167 -44.6089 0.817092 15.3384 0.283196 -1.93305 0.911453 16.2658 12.319 -0.0 0.0 -0.0 7.41687 -21.5544 -13.2444 -25.0883 19.4476 -58.5309 0.738961 20.1056 -0.131003 6.6344 -0.186064 0.826562 5.41001 -28.7444 -46.3867 0.0 0.0 0.0 -11.6366 17.7339 2.73607 -15.0645 0.321767 2.28278 39.6634 -6.45763 -4.92602 10.1311 -0.0 -0.0 -0.0 0.0 -0.0 24.9412 12.4601 -3.76794 -47.5352 1.01435 -7.019 38.0516 -20.5016 4.85574 5.45533 -0.0 -0.0 0.0 0.0 0.0 
